# AST/ASF file generated using VICON BodyLanguage
# -----------------------------------------------
:version 1.10
:name VICON
:units
  mass 1.0
  length 0.45
  angle deg
:documentation
   .ast/.asf automatically generated from VICON data using
   VICON BodyBuilder and BodyLanguage model FoxedUp or BRILLIANT.MOD
:root
   order TX TY TZ RX RY RZ
   axis XYZ
   position 0 0 0  
   orientation 0 0 0 
:bonedata
  begin
     id 1 
     name lhipjoint
     direction 0.547975 -0.797114 0.253638 
     length 2.36201 
     axis 0 0 0  XYZ
  end
  begin
     id 2 
     name lfemur
     direction 0.34202 -0.939693 0  
     length 7.69075  
     axis 0 0 20  XYZ
    dof rx ry rz
    limits (-160.0 20.0)
           (-70.0 70.0)
           (-60.0 70.0)
  end
  begin
     id 3 
     name ltibia
     direction 0.34202 -0.939693 0   
     length 7.91399   
     axis 0 0 20   XYZ
    dof rx
    limits (-10.0 170.0)
  end
  begin
     id 4 
     name lfoot
     direction 0.0705293 -0.193778 0.978507   
     length 2.13618   
     axis -90 7.62852e-016 20   XYZ
    dof rx rz
    limits (-45.0 90.0)
           (-70.0 20.0)
  end
  begin
     id 5 
     name ltoes
     direction 1.53592e-011 -4.21925e-011 1   
     length 1.07518   
     axis -90 7.62852e-016 20   XYZ
    dof rx
    limits (-90.0 20.0)
  end
  begin
     id 6 
     name rhipjoint
     direction -0.57 -0.782963 0.249136   
     length 2.4047  
     axis 0 0 0  XYZ 
  end
  begin
     id 7 
     name rfemur
     direction -0.34202 -0.939693 0   
     length 7.51486   
     axis 0 0 -20   XYZ
    dof rx ry rz
    limits (-160.0 20.0)
           (-70.0 70.0)
           (-70.0 60.0)
  end
  begin
     id 8 
     name rtibia
     direction -0.34202 -0.939693 0   
     length 8.08317   
     axis 0 0 -20   XYZ
    dof rx
    limits (-10.0 170.0)
 end
 begin
     id 9 
     name rfoot
     direction -0.104954 -0.281256 0.953876   
     length 2.30343  
     axis -90 -7.62852e-016 -20   XYZ
    dof rx rz
    limits (-45.0 90.0)
           (-20.0 70.0)
  end
  begin
     id 10 
     name rtoes
     direction -1.53556e-011 -4.21922e-011 1   
     length 1.14803   
     axis -90 -7.62852e-016 -20   XYZ
    dof rx
    limits (-90.0 20.0)
  end
  begin
     id 11 
     name lowerback
     direction -0.0152855 0.99353 -0.11254   
     length 2.05311   
     axis 0 0 0   XYZ
    dof rx ry rz
    limits (-20.0 45.0)
           (-30.0 30.0)
           (-30.0 30.0)
  end
  begin
     id 12 
     name upperback
     direction -0.00157509 0.999443 -0.033332   
     length 2.06353   
     axis 0 0 0   XYZ
    dof rx ry rz
    limits (-20.0 45.0)
           (-30.0 30.0)
           (-30.0 30.0)
  end
  begin
     id 13 
     name thorax
     direction 0.00577788 0.999804 0.0189484   
     length 2.08472   
     axis 0 0 0   XYZ
    dof rx ry rz
    limits (-20.0 45.0)
           (-30.0 30.0)
           (-30.0 30.0)
  end
  begin
     id 14 
     name lowerneck
     direction -1.09301e-005 0.994719 0.10264   
     length 1.76249   
     axis 0 0 0   XYZ
    dof rx ry rz
    limits (-20.0 45.0)
           (-30.0 30.0)
           (-30.0 30.0)
  end
  begin
     id 15 
     name upperneck
     direction 0.0495018 0.988526 -0.142706   
     length 1.77897   
     axis 0 0 0   XYZ
    dof rx ry rz
    limits (-20.0 45.0)
           (-30.0 30.0)
           (-30.0 30.0)
  end
  begin
     id 16
     name head
     direction 0.0142736 0.998114 -0.0597101  
     length 1.78934  
     axis 0 0 0   XYZ
    dof rx ry rz
    limits (-20.0 45.0)
           (-30.0 30.0)
           (-30.0 30.0)
  end
  begin
     id 17 
     name lclavicle
     direction 0.918111 0.396107 -0.0130883  
     length 3.37276  
     axis 0 0 0   XYZ
    dof ry rz
    limits (-20.0 10.0)
           (0.0 20.0)
  end
  begin
     id 18 
     name lhumerus
     direction 1 -4.48975e-011 -3.26108e-027   
     length 5.34298   
     axis 180 -30 -90   XYZ
    dof rx ry rz
    limits (-60.0 90.0)
           (-90.0 90.0)
           (-90.0 90.0)
  end
  begin
     id 19
     name lradius
     direction 1 -4.48964e-011 -8.84413e-028   
     length 3.67262   
     axis 180 -30 -90   XYZ
    dof rx
    limits (-10.0 170.0)
  end
  begin
     id 20
     name lwrist
     direction 1 -4.48991e-011 -1.24264e-027   
     length 1.83631   
     axis -2.17013e-015 90 90   XYZ
    dof ry
    limits (-180.0 0.0)
 end
  begin
     id 21 
     name lhand
     direction 1 -4.48855e-011 -2.48528e-027   
     length 0.599298   
     axis 1.58582e-015 90 90   XYZ
    dof rx rz
    limits (-90.0 90.0)
           (-45.0 45.0)
  end
  begin
     id 22 
     name lfingers
     direction 1 -4.48811e-011 -4.97056e-027   
     length 0.48317   
     axis 3.17164e-015 90 90   XYZ
    dof rx
    limits (0.0 90.0)
  end
  begin
     id 23
     name lthumb
     direction 0.707107 -6.34882e-011 0.707107   
     length 0.693738   
     axis -90 45 2.85299e-015   XYZ
    dof rx rz
    limits (-45.0 45.0)
           (-45.0 45.0)
  end
  begin
     id 24 
     name rclavicle
     direction -0.920511 0.384752 -0.0680135   
     length 3.43787  
     axis 0 0 0   XYZ 
    dof ry rz
    limits (-10.0 20.0)
           (-20.0 0.0)
  end
  begin
     id 25 
     name rhumerus
     direction -0.999976 -0.00330524 0.00603274  
     length 5.5498   
     axis 180 30 90   XYZ
    dof rx ry rz
    limits (-90.0 60.0)
           (-90.0 90.0)
           (-90.0 90.0)
  end
  begin
     id 26 
     name rradius
     direction -1 -4.48967e-011 8.62438e-027   
     length 3.69401   
     axis 180 30 90   XYZ
    dof rx
    limits (-10.0 170.0)
  end
  begin
     id 27 
     name rwrist
     direction -1 -4.4897e-011 9.54866e-027   
     length 1.84701   
     axis -7.69462e-015 -90 -90   XYZ
    dof ry
    limits (-180.0 0.0)
  end
  begin
     id 28
     name rhand
     direction -1 -4.48982e-011 1.90973e-026   
     length 0.638113   
     axis -1.21857e-014 -90 -90   XYZ
    dof rx rz
    limits (-90.0 90.0)
           (-45.0 45.0)
  end
  begin
     id 29
     name rfingers
     direction -1 -4.48936e-011 3.81946e-026   
     length 0.514463   
     axis -2.43714e-014 -90 -90   XYZ
    dof rx
    limits (0.0 90.0)
  end
  begin
     id 30
     name rthumb
     direction -0.707107 -6.34942e-011 0.707107   
     length 0.738669   
     axis -90 -45 -2.85299e-015   XYZ
    dof rx rz
    limits (-45.0 45.0)
           (-45.0 45.0)
  end
:hierarchy
  begin
    root lhipjoint rhipjoint lowerback
    lhipjoint lfemur
    lfemur ltibia
    ltibia lfoot
    lfoot ltoes
    rhipjoint rfemur
    rfemur rtibia
    rtibia rfoot
    rfoot rtoes
    lowerback upperback
    upperback thorax
    thorax lowerneck lclavicle rclavicle
    lowerneck upperneck
    upperneck head
    lclavicle lhumerus
    lhumerus lradius
    lradius lwrist
    lwrist lhand lthumb
    lhand lfingers
    rclavicle rhumerus
    rhumerus rradius
    rradius rwrist
    rwrist rhand rthumb
    rhand rfingers
  end

#!OML:ASF F:\twosubjects\two\Thursday\Session 1\Rory.ASF
:FULLY-SPECIFIED
:DEGREES
66
root 7.4138 10.8289 10.2832 175.413 3.90362 172.83
lowerback 38.2269 0.535984 -8.21392
upperback 11.6482 1.919 -4.08692
thorax -5.56213 2.78421 -0.958104
lowerneck -13.065 -2.98262 -3.36906
upperneck -12.8973 -4.93881 7.49718
head -1.65681 -3.22073 2.90897
rclavicle -4.96962e-015 2.42517e-014
rhumerus 1.23546 7.38657 -74.425
rradius 109.932
rwrist 11.137
rhand -28.9064 35.2993
rfingers 7.12502
rthumb -2.26133 5.33152
lclavicle -4.96962e-015 2.42517e-014
lhumerus 3.80045 -18.67 57.5137
lradius 105.267
lwrist -22.4113
lhand 7.02171 22.1178
lfingers 7.12502
lthumb 32.2964 49.2639
rfemur -88.4193 -19.183 4.7462
rtibia 102.751
rfoot -4.32762 -1.33497
rtoes 3.17132
lfemur -77.9037 28.2075 -12.0163
ltibia 96.8436
lfoot -6.07072 -17.0444
ltoes -13.7638
67
root 7.40749 10.8236 10.2752 175.523 3.8385 172.913
lowerback 38.0633 0.555702 -7.85795
upperback 11.7274 2.12476 -4.20589
thorax -5.4322 2.9014 -1.32977
lowerneck -13.5938 -3.17796 -2.61743
upperneck -12.9239 -5.34642 7.33021
head -1.5799 -3.47063 2.68822
rclavicle 2.38542e-014 -1.03368e-014
rhumerus 0.626772 4.14231 -74.3626
rradius 110.673
rwrist 9.36457
rhand -29.5677 33.992
rfingers 7.12502
rthumb -2.89995 4.03194
lclavicle 2.38542e-014 -1.03368e-014
lhumerus 3.80853 -17.836 57.0881
lradius 105.842
lwrist -21.9148
lhand 5.45701 22.7223
lfingers 7.12502
lthumb 30.8058 50.1606
rfemur -88.6196 -19.4393 4.91663
rtibia 102.828
rfoot -4.17109 -1.09409
rtoes 2.4377
lfemur -78.1255 27.9996 -11.9347
ltibia 96.9808
lfoot -6.17743 -16.8361
ltoes -14.7994
68
root 7.40364 10.8161 10.2679 175.522 3.86631 172.758
lowerback 38.046 0.551294 -8.20943
upperback 11.4344 1.82924 -4.04349
thorax -5.74316 2.70228 -0.881511
lowerneck -12.3172 -3.10609 -3.11256
upperneck -13.5468 -5.15431 7.55086
head -1.98938 -3.38009 2.91505
rclavicle 1.35174e-014 3.77691e-015
rhumerus 0.0856271 2.64105 -74.1394
rradius 111.048
rwrist 7.73222
rhand -30.332 33.0644
rfingers 7.12502
rthumb -3.63808 3.11567
lclavicle 1.35174e-014 3.77691e-015
lhumerus 1.99674 -16.184 57.4279
lradius 106.447
lwrist -21.7732
lhand 4.07389 23.011
lfingers 7.12502
lthumb 29.4862 50.6901
rfemur -88.7442 -19.5857 4.82846
rtibia 102.89
rfoot -4.28164 -0.850907
rtoes 0.937748
lfemur -78.1425 27.9247 -12.0362
ltibia 97.0899
lfoot -6.19184 -16.7777
ltoes -14.8339
69
root 7.40163 10.8201 10.2624 175.382 4.03203 172.727
lowerback 38.2064 0.680329 -8.27957
upperback 11.3277 1.91736 -4.03755
thorax -5.91508 2.73954 -0.88513
lowerneck -12.4782 -3.18457 -2.88698
upperneck -13.4292 -5.29118 7.47817
head -1.92241 -3.4522 2.83607
rclavicle 2.5842e-015 -3.37934e-015
rhumerus -0.37299 0.288851 -73.9536
rradius 111.336
rwrist 6.13654
rhand -30.7496 32.1667
rfingers 7.12502
rthumb -4.04137 2.22526
lclavicle 2.5842e-015 -3.37934e-015
lhumerus 1.34569 -15.1078 57.2616
lradius 106.801
lwrist -21.6611
lhand 2.4354 23.3838
lfingers 7.12502
lthumb 27.9209 51.328
rfemur -88.5975 -19.424 4.77902
rtibia 102.87
rfoot -4.47659 -0.780578
rtoes 0.0459832
lfemur -77.821 27.9284 -11.8507
ltibia 97.1446
lfoot -6.29404 -16.7431
ltoes -14.6809
70
root 7.39542 10.8272 10.2576 175.107 4.19195 172.718
lowerback 38.3645 0.791004 -8.31309
upperback 11.2451 2.00371 -3.96721
thorax -6.06273 2.77411 -0.837562
lowerneck -12.2939 -3.249 -2.82989
upperneck -13.4851 -5.38098 7.38252
head -1.97037 -3.49725 2.79738
rclavicle 2.26615e-014 4.8901e-014
rhumerus -0.93563 -1.802 -73.5327
rradius 111.56
rwrist 4.50141
rhand -30.0268 31.5286
rfingers 7.12502
rthumb -3.34338 1.57509
lclavicle 2.26615e-014 4.8901e-014
lhumerus 0.562417 -14.0754 57.1161
lradius 107.193
lwrist -21.6717
lhand 0.463219 23.8395
lfingers 7.12502
lthumb 26.034 52.0757
rfemur -88.2017 -19.2708 4.71324
rtibia 102.786
rfoot -4.42284 -0.751336
rtoes 0.815749
lfemur -77.318 27.8614 -11.5959
ltibia 97.1703
lfoot -6.62365 -16.4849
ltoes -15.363
71
root 7.38621 10.8249 10.2492 174.925 4.22925 172.605
lowerback 38.2908 0.798642 -8.35061
upperback 11.1584 1.95372 -3.9377
thorax -6.13506 2.73386 -0.768419
lowerneck -11.6209 -3.362 -3.07014
upperneck -13.7935 -5.47745 7.57981
head -2.16929 -3.54709 2.93575
rclavicle 1.82882e-014 5.80451e-014
rhumerus -1.4137 -3.44788 -73.178
rradius 111.534
rwrist 3.6666
rhand -29.8264 31.3914
rfingers 7.12502
rthumb -3.14984 1.43497
lclavicle 1.82882e-014 5.80451e-014
lhumerus -0.322356 -13.1987 56.8763
lradius 107.499
lwrist -21.7886
lhand -2.04804 23.8451
lfingers 7.12502
lthumb 23.6273 52.4133
rfemur -87.9585 -19.3886 4.53729
rtibia 102.769
rfoot -4.27776 -0.649502
rtoes 2.50764
lfemur -76.9335 27.6949 -11.5172
ltibia 97.2247
lfoot -6.76119 -16.4269
ltoes -14.2301
72
root 7.37975 10.8188 10.2394 174.961 4.29453 172.495
lowerback 37.7971 0.637562 -8.25273
upperback 11.246 1.81938 -4.1459
thorax -5.86924 2.66721 -0.960019
lowerneck -11.7481 -3.42276 -3.07385
upperneck -13.6758 -5.55026 7.80264
head -2.0976 -3.58508 3.00171
rclavicle 2.5842e-015 4.85035e-014
rhumerus -1.4918 -4.77646 -73.2103
rradius 111.351
rwrist 3.72094
rhand -30.7931 32.1383
rfingers 7.12502
rthumb -4.08337 2.19767
lclavicle 2.5842e-015 4.85035e-014
lhumerus -0.758532 -12.3553 56.1945
lradius 107.652
lwrist -22.0144
lhand -4.31558 23.4575
lfingers 7.12502
lthumb 21.4509 52.2898
rfemur -88.0557 -19.5532 4.44814
rtibia 102.84
rfoot -4.27498 -0.506074
rtoes 3.93994
lfemur -76.8535 27.583 -11.4893
ltibia 97.3194
lfoot -6.63985 -16.5235
ltoes -12.1863
73
root 7.37512 10.8159 10.2334 175.067 4.37394 172.518
lowerback 37.1991 0.398626 -8.01851
upperback 11.3258 1.62428 -4.39913
thorax -5.57929 2.56769 -1.24346
lowerneck -11.911 -3.34787 -2.91893
upperneck -13.5109 -5.46562 7.91359
head -2.01999 -3.54746 3.0033
rclavicle 1.11319e-014 4.81059e-014
rhumerus -1.44979 -5.5552 -73.3751
rradius 111.083
rwrist 4.3474
rhand -31.4384 32.965
rfingers 7.12502
rthumb -4.70647 3.03732
lclavicle 1.11319e-014 4.81059e-014
lhumerus -1.20488 -11.5601 55.3746
lradius 107.924
lwrist -22.155
lhand -5.27351 23.7818
lfingers 7.12502
lthumb 20.5306 52.7162
rfemur -88.1967 -19.586 4.48803
rtibia 102.881
rfoot -4.33245 -0.390729
rtoes 5.22828
lfemur -76.9519 27.4655 -11.4002
ltibia 97.3997
lfoot -6.89702 -16.1009
ltoes -12.8316
74
root 7.37237 10.8151 10.2337 175.105 4.49262 172.53
lowerback 38.7328 1.0523 -8.25809
upperback 9.81489 1.66203 -3.95871
thorax -7.78603 2.46552 -0.803895
lowerneck -10.9542 -3.63714 -2.87828
upperneck -12.6374 -5.68836 7.56349
head -1.88032 -3.54592 2.86354
rclavicle -8.15017e-015 2.52457e-014
rhumerus -3.79893 -5.62032 -72.2173
rradius 111.209
rwrist 4.73435
rhand -31.4562 32.8119
rfingers 7.12502
rthumb -4.72369 2.88456
lclavicle -8.15017e-015 2.52457e-014
lhumerus -3.41585 -12.4389 55.681
lradius 108.45
lwrist -22.0868
lhand -5.60536 24.1179
lfingers 7.12502
lthumb 20.2117 53.0864
rfemur -88.2714 -19.4542 4.47901
rtibia 102.869
rfoot -4.35046 -0.379668
rtoes 8.16591
lfemur -76.9227 27.3361 -11.2741
ltibia 97.4416
lfoot -7.19185 -15.5316
ltoes -13.2583
75
root 7.36804 10.8184 10.2402 174.879 4.58219 172.715
lowerback 39.1839 1.19593 -8.0056
upperback 9.39355 1.74813 -3.90945
thorax -8.42067 2.47821 -0.953143
lowerneck -10.5966 -3.85399 -2.54819
upperneck -12.342 -5.95654 7.39395
head -1.83917 -3.65563 2.73874
rclavicle 2.62396e-014 4.47266e-014
rhumerus -5.1408 -5.66289 -71.5744
rradius 111.487
rwrist 4.81069
rhand -31.1203 32.263
rfingers 7.12502
rthumb -4.39933 2.3287
lclavicle 2.62396e-014 4.47266e-014
lhumerus -4.2071 -12.9161 55.2096
lradius 108.729
lwrist -21.8841
lhand -5.5094 23.1798
lfingers 7.12502
lthumb 20.3039 52.1385
rfemur -87.9463 -19.2733 4.62576
rtibia 102.788
rfoot -4.53667 -0.52093
rtoes 10.893
lfemur -76.6546 27.1478 -10.8278
ltibia 97.4755
lfoot -7.32952 -15.3758
ltoes -16.3843
76
root 7.36073 10.8208 10.2446 174.474 4.6075 172.936
lowerback 38.8613 0.857803 -7.77539
upperback 9.7557 1.55348 -3.93396
thorax -7.90805 2.40655 -0.989103
lowerneck -11.0826 -3.74309 -2.75884
upperneck -12.1205 -5.81351 7.4193
head -1.68679 -3.57416 2.76688
rclavicle 1.98785e-016 9.54166e-015
rhumerus -5.14084 -4.74236 -71.3568
rradius 111.6
rwrist 4.90924
rhand -30.8113 32.0652
rfingers 7.12502
rthumb -4.10095 2.12497
lclavicle 1.98785e-016 9.54166e-015
lhumerus -4.52432 -12.3245 54.5809
lradius 108.882
lwrist -21.7074
lhand -4.63029 22.6344
lfingers 7.12502
lthumb 21.1486 51.5009
rfemur -87.3828 -19.1755 4.77786
rtibia 102.697
rfoot -4.76333 -0.594608
rtoes 10.2013
lfemur -76.1959 26.9031 -10.2812
ltibia 97.5333
lfoot -7.2299 -15.3125
ltoes -16.0066
